<?xml version="1.0" standalone="no"?>
<!DOCTYPE svg PUBLIC "-//W3C//DTD SVG 20010904//EN"
 "http://www.w3.org/TR/2001/REC-SVG-20010904/DTD/svg10.dtd">
<svg version="1.0" xmlns="http://www.w3.org/2000/svg"
 width="512.000000pt" height="512.000000pt" viewBox="0 0 512.000000 512.000000"
 preserveAspectRatio="xMidYMid meet">
<metadata>
Created by potrace 1.11, written by Peter Selinger 2001-2013
</metadata>
<g transform="translate(0.000000,512.000000) scale(0.100000,-0.100000)"
fill="#000000" stroke="none">
<path d="M2379 5116 c-2 -2 -35 -6 -74 -10 -38 -3 -97 -10 -130 -16 -33 -6
-76 -13 -95 -16 -96 -15 -403 -102 -435 -123 -5 -4 -28 -13 -50 -20 -64 -22
-243 -112 -356 -180 -225 -134 -451 -325 -619 -523 -94 -110 -106 -126 -197
-260 -44 -65 -173 -291 -173 -303 0 -2 -15 -36 -34 -77 -54 -119 -134 -356
-150 -448 -2 -14 -7 -36 -10 -50 -44 -190 -65 -557 -44 -780 21 -221 84 -479
168 -690 38 -96 127 -283 158 -332 9 -15 34 -55 55 -90 47 -78 164 -236 236
-318 319 -363 725 -626 1186 -769 123 -38 289 -74 405 -87 30 -3 77 -10 105
-14 50 -8 468 -5 515 4 14 2 45 7 70 10 37 6 210 38 270 51 187 41 492 168
698 292 641 385 1101 1064 1207 1783 3 19 7 44 10 55 19 95 27 458 13 605 -60
597 -321 1143 -755 1575 -201 202 -487 397 -748 511 -44 20 -89 39 -100 44
-86 38 -365 119 -465 134 -19 3 -46 8 -60 11 -14 3 -45 8 -70 11 -25 3 -56 7
-70 10 -28 6 -456 15 -461 10z m416 -649 c11 -3 45 -8 75 -13 30 -4 57 -8 60
-9 3 -1 21 -5 40 -9 137 -30 348 -105 457 -163 66 -34 193 -110 221 -131 l23
-18 -1334 -1333 c-734 -734 -1337 -1334 -1341 -1333 -7 1 -66 78 -66 86 0 2
-18 34 -40 70 -22 36 -40 68 -40 70 0 2 -18 42 -39 88 -82 176 -139 383 -159
583 -13 133 -5 464 13 518 2 6 6 28 9 47 10 68 57 232 92 323 120 308 318 584
569 795 277 232 664 396 1008 428 40 3 74 8 75 9 6 5 354 -3 377 -8z m1416
-930 c191 -324 272 -640 264 -1027 -2 -91 -6 -174 -8 -185 -5 -20 -11 -61 -23
-140 -3 -22 -8 -44 -11 -48 -3 -5 -7 -22 -10 -38 -10 -66 -77 -250 -133 -367
-229 -477 -627 -826 -1135 -997 -84 -28 -247 -65 -346 -79 -96 -12 -432 -15
-484 -3 -11 2 -42 8 -70 12 -98 14 -283 62 -360 95 -11 4 -40 16 -65 25 -93
34 -387 199 -378 211 2 2 604 605 1338 1339 l1334 1336 18 -23 c9 -13 40 -62
69 -111z"/>
</g>
</svg>
