<?xml version="1.0" standalone="no"?>
<!DOCTYPE svg PUBLIC "-//W3C//DTD SVG 20010904//EN"
 "http://www.w3.org/TR/2001/REC-SVG-20010904/DTD/svg10.dtd">
<svg version="1.0" xmlns="http://www.w3.org/2000/svg"
 width="700.000000pt" height="700.000000pt" viewBox="0 0 700.000000 700.000000"
 preserveAspectRatio="xMidYMid meet">
<metadata>
Created by potrace 1.11, written by Peter Selinger 2001-2013
</metadata>
<g transform="translate(0.000000,700.000000) scale(0.100000,-0.100000)"
fill="#000000" stroke="none">
<path d="M3298 6996 c-1 -2 -41 -6 -88 -10 -199 -14 -438 -56 -635 -111 -49
-14 -97 -28 -105 -30 -8 -2 -62 -20 -118 -40 -557 -195 -1028 -505 -1431 -941
-95 -103 -101 -111 -186 -219 -409 -524 -662 -1173 -723 -1850 -9 -106 -8
-510 1 -605 9 -81 25 -210 33 -250 2 -14 7 -41 10 -60 3 -19 7 -42 9 -50 2 -8
7 -30 10 -48 3 -18 21 -92 39 -165 231 -895 831 -1685 1631 -2144 174 -100
398 -206 531 -252 32 -11 91 -32 129 -45 153 -54 474 -128 620 -142 33 -3 63
-8 66 -10 29 -17 547 -25 714 -10 366 32 715 119 1060 264 117 49 342 162 387
193 14 11 29 19 33 19 13 0 268 174 363 248 166 128 352 304 475 447 33 39 63
72 67 75 3 3 44 55 90 115 332 437 547 915 654 1456 14 70 28 155 32 190 3 35
8 67 10 70 17 30 25 548 11 699 -14 154 -20 206 -32 270 -25 136 -40 208 -55
270 -172 694 -542 1311 -1071 1779 -133 118 -142 126 -241 199 -295 218 -601
379 -958 504 -47 17 -92 32 -100 33 -8 2 -46 13 -85 24 -68 21 -260 65 -320
75 -34 6 -227 33 -295 42 -48 6 -526 15 -532 10z m407 -880 c393 -31 774 -149
1096 -338 123 -72 118 -69 172 -106 l48 -33 -913 -913 c-502 -502 -1325 -1325
-1830 -1829 l-916 -917 -37 52 c-58 80 -166 273 -218 389 -98 221 -173 474
-202 689 -3 25 -8 56 -10 70 -36 247 -19 601 41 876 8 39 17 79 19 90 2 10 4
19 5 19 1 0 3 10 6 23 5 27 70 223 89 267 244 578 562 956 1085 1291 67 43
311 163 400 197 152 58 357 118 456 132 22 4 46 8 54 10 8 2 38 7 65 11 28 3
59 8 70 10 10 2 62 6 115 10 52 3 96 7 97 8 4 3 244 -2 308 -8z m2039 -1256
c105 -174 181 -336 241 -517 37 -109 84 -285 91 -337 2 -15 5 -35 8 -45 3 -9
8 -41 12 -71 4 -30 8 -66 10 -80 22 -164 21 -440 -2 -650 -5 -39 -46 -254 -58
-302 -34 -131 -68 -232 -116 -348 -17 -41 -38 -93 -47 -115 -9 -22 -20 -44
-24 -50 -4 -5 -26 -46 -49 -90 -195 -372 -514 -716 -900 -970 -237 -155 -663
-325 -906 -360 -22 -3 -44 -8 -51 -10 -6 -2 -38 -7 -70 -11 -32 -3 -60 -8 -63
-9 -3 -2 -57 -7 -120 -11 -302 -20 -568 3 -845 72 -106 27 -230 66 -280 88
-16 8 -41 17 -55 21 -83 23 -405 197 -507 273 l-33 24 1828 1828 1827 1828 22
-27 c13 -14 51 -73 87 -131z"/>
</g>
</svg>
